<svg height="700pt" preserveAspectRatio="xMidYMid meet" viewBox="0 0 700 700" width="700pt" xmlns="http://www.w3.org/2000/svg"><path d="m4905 5283c-77-17-444-164-662-265-24-11-49-21-55-22-7-2-26-8-43-15-123-50-336-112-471-135-81-15-391-16-464-2-192 37-327 74-500 136-283 102-347 122-395 124-44 1-51-2-63-26-10-22-10-37-1-70 14-55 66-164 130-276 49-84 248-402 259-412 5-5 97-142 115-172 21-35 254-384 264-395 6-7 11-14 11-17 0-2 17-33 38-67 43-70 86-172 100-235 20-87-12-336-70-559-5-22-11-47-13-55-3-17-35-167-40-190-10-47-47-229-51-250-2-14-7-36-9-50-3-14-8-43-11-65s-8-51-10-65c-10-66-12-204-2-230 19-57 49-44 245 111 278 220 516 335 773 373 89 14 422 16 475 3 11-3 47-8 80-11 82-10 117-15 210-31 96-17 241-43 275-50 47-9 245-45 284-51 21-3 48-8 60-10 59-12 202-15 246-4 70 17 94 47 94 118-1 88-27 155-176 462-156 320-196 410-262 580-33 87-83 259-91 312-4 23-8 46-11 49-4 7-10 42-19 109-20 155-25 446-11 690 27 476 11 612-80 655-30 14-104 18-149 8z" transform="matrix(.1 0 0 -.1 0 700)"/></svg>